<svg width="113" height="40" viewBox="0 0 113 40" fill="none" xmlns="http://www.w3.org/2000/svg">
<path d="M67.8 13.1H70.8V28H67.7V18.4L63.2 24.2H62.8L58.3 18.18V28H55.2V13.1H58.2L62.98 19.4L67.8 13.1ZM76.4478 28.24C75.6211 28.24 74.9011 28.1 74.2878 27.82C73.6878 27.5267 73.2211 27.14 72.8878 26.66C72.5678 26.1667 72.4078 25.62 72.4078 25.02C72.4078 24.2067 72.7145 23.54 73.3278 23.02C73.9411 22.4867 74.8011 22.1067 75.9078 21.88L79.3278 21.16V20.8C79.3278 20.3867 79.1745 20.06 78.8678 19.82C78.5611 19.5667 78.1545 19.44 77.6478 19.44C77.1145 19.44 76.6411 19.5867 76.2278 19.88C75.8278 20.16 75.5478 20.5467 75.3878 21.04L72.8078 19.8C73.1278 18.8933 73.7211 18.1733 74.5878 17.64C75.4678 17.1067 76.4878 16.84 77.6478 16.84C78.5811 16.84 79.3945 17.0067 80.0878 17.34C80.7945 17.6733 81.3411 18.14 81.7278 18.74C82.1278 19.3267 82.3278 20.0133 82.3278 20.8V28H79.5278V27C79.1145 27.44 78.6545 27.76 78.1478 27.96C77.6545 28.1467 77.0878 28.24 76.4478 28.24ZM75.5078 24.98C75.5078 25.3133 75.6345 25.5733 75.8878 25.76C76.1411 25.9467 76.4811 26.04 76.9078 26.04C77.5878 26.04 78.1611 25.8267 78.6278 25.4C79.0945 24.9733 79.3278 24.4533 79.3278 23.84V23.32L76.4478 23.96C75.8211 24.1067 75.5078 24.4467 75.5078 24.98ZM83.9258 28V17.08H86.7258V18.72C87.0058 18.04 87.3991 17.58 87.9058 17.34C88.4258 17.0867 89.0191 16.96 89.6858 16.96H90.8258V19.56H89.3858C88.6524 19.56 88.0591 19.7867 87.6058 20.24C87.1524 20.68 86.9258 21.3067 86.9258 22.12V28H83.9258ZM92.0313 28V13.1H95.0313V21.22L98.9513 17.08H102.451L98.4913 21.48L102.451 28H99.1913L96.5513 23.62L95.0313 25.26V28H92.0313ZM107.662 28.24C106.476 28.24 105.429 27.9667 104.522 27.42C103.616 26.86 102.989 26.0867 102.642 25.1L104.862 24.06C105.462 25.3133 106.396 25.94 107.662 25.94C108.129 25.94 108.502 25.8533 108.782 25.68C109.062 25.4933 109.202 25.2533 109.202 24.96C109.202 24.72 109.122 24.5333 108.962 24.4C108.802 24.2533 108.622 24.1467 108.422 24.08C108.236 24 108.076 23.9467 107.942 23.92L106.022 23.42C105.036 23.1533 104.296 22.7467 103.802 22.2C103.322 21.64 103.082 20.9867 103.082 20.24C103.082 19.56 103.262 18.9667 103.622 18.46C103.982 17.9533 104.482 17.56 105.122 17.28C105.776 16.9867 106.529 16.84 107.382 16.84C108.502 16.84 109.482 17.0933 110.322 17.6C111.162 18.1067 111.756 18.8067 112.102 19.7L109.862 20.74C109.689 20.2733 109.376 19.9067 108.922 19.64C108.482 19.3733 107.969 19.24 107.382 19.24C106.942 19.24 106.596 19.32 106.342 19.48C106.102 19.64 105.982 19.86 105.982 20.14C105.982 20.3533 106.049 20.5267 106.182 20.66C106.329 20.7933 106.489 20.8933 106.662 20.96C106.836 21.0133 106.982 21.06 107.102 21.1L109.122 21.64C110.096 21.8933 110.836 22.2933 111.342 22.84C111.849 23.3867 112.102 24.0533 112.102 24.84C112.102 25.5067 111.916 26.1 111.542 26.62C111.169 27.1267 110.649 27.5267 109.982 27.82C109.316 28.1 108.542 28.24 107.662 28.24Z" fill="#111111"/>
<circle cx="20" cy="20" r="20" fill="#111111"/>
<ellipse cx="19.9999" cy="20" rx="10.4" ry="10.4" fill="#F8F8F8"/>
</svg>
