<svg width="512" height="470" viewBox="0 0 512 470" fill="none" xmlns="http://www.w3.org/2000/svg">
<path d="M511.019 97.2293L331.435 276.813C311.411 296.787 284.283 308.003 256 308.003C227.717 308.003 200.589 296.787 180.565 276.813L0.981333 97.2293C0.682667 100.6 0 103.651 0 107V363C0.0338743 391.279 11.2828 418.391 31.2794 438.387C51.2759 458.384 78.3873 469.633 106.667 469.667H405.333C433.613 469.633 460.724 458.384 480.721 438.387C500.717 418.391 511.966 391.279 512 363V107C512 103.651 511.317 100.6 511.019 97.2293Z" fill="#111111"/>
<path d="M301.269 246.648L496.128 51.768C486.689 36.1161 473.375 23.1608 457.472 14.1516C441.568 5.14234 423.611 0.383247 405.333 0.333313H106.667C88.3888 0.383247 70.4321 5.14234 54.5286 14.1516C38.6252 23.1608 25.3116 36.1161 15.8721 51.768L210.731 246.648C222.754 258.623 239.031 265.346 256 265.346C272.969 265.346 289.247 258.623 301.269 246.648V246.648Z" fill="#111111"/>
</svg>
