<svg width="77" height="62" viewBox="0 0 77 62" fill="none" xmlns="http://www.w3.org/2000/svg">
<path d="M69.1092 15.434C69.1538 16.1049 69.1538 16.7789 69.1538 17.4562C69.1538 38.1447 53.4028 62 24.6099 62V61.9873C16.1049 62 7.77483 59.5646 0.614746 54.9703C1.85155 55.1197 3.0947 55.1928 4.34104 55.196C11.393 55.2024 18.2415 52.8369 23.7833 48.4811C17.0842 48.3539 11.2086 43.9853 9.15788 37.6074C11.5043 38.0589 13.9207 37.9667 16.2258 37.3403C8.91942 35.8651 3.667 29.4458 3.667 21.9932C3.667 21.9264 3.667 21.8597 3.667 21.7961C5.84491 23.0106 8.28036 23.6815 10.773 23.7546C3.89274 19.1603 1.76888 10.0099 5.9244 2.85621C13.873 12.6361 25.6019 18.5817 38.1893 19.2144C36.927 13.7776 38.6535 8.08002 42.7168 4.25516C49.0216 -1.67448 58.9382 -1.36925 64.8679 4.93556C68.3748 4.24562 71.7355 2.95795 74.81 1.13614C73.6399 4.76069 71.1949 7.83838 67.9265 9.79691C71.0328 9.42492 74.0628 8.59509 76.9211 7.32967C74.8195 10.4741 72.1742 13.218 69.1092 15.434Z" fill="#111111"/>
</svg>
